<?xml version="1.0" standalone="no"?>
<!DOCTYPE svg PUBLIC "-//W3C//DTD SVG 20010904//EN"
 "http://www.w3.org/TR/2001/REC-SVG-20010904/DTD/svg10.dtd">
<svg version="1.0" xmlns="http://www.w3.org/2000/svg"
 width="500.000000pt" height="500.000000pt" viewBox="0 0 500.000000 500.000000"
 preserveAspectRatio="xMidYMid meet">

<g transform="translate(0.000000,500.000000) scale(0.100000,-0.100000)"
fill="#000000" stroke="none">
<path d="M0 2500 l0 -2500 2500 0 2500 0 0 2500 0 2500 -2500 0 -2500 0 0
-2500z m1980 2133 c-1 -5 -38 -33 -83 -63 -45 -30 -124 -90 -175 -132 -50 -43
-93 -78 -95 -78 -1 0 -3 23 -4 52 -2 60 -24 95 -74 119 l-34 17 38 15 c64 27
181 57 258 66 98 11 169 13 169 4z m1002 -4 c438 -47 788 -274 1063 -689 201
-304 336 -685 392 -1105 26 -200 24 -602 -5 -802 -21 -151 -54 -309 -90 -433
-22 -73 -108 -298 -121 -315 -5 -5 -24 -39 -42 -75 -117 -234 -332 -462 -534
-567 -95 -49 -166 -74 -295 -104 -171 -39 -379 -8 -483 73 -23 18 -44 35 -47
39 -3 3 -31 22 -62 42 -55 35 -155 131 -158 152 -1 6 -8 14 -16 18 -8 5 -12
12 -9 18 4 5 1 9 -5 9 -6 0 -9 4 -5 9 3 6 -3 14 -12 20 -10 6 -14 11 -9 11 5
0 -25 33 -66 73 -42 41 -79 83 -82 95 -4 12 -12 22 -17 22 -5 0 -8 3 -8 7 4
23 -2 43 -11 38 -5 -3 -10 -1 -10 4 0 6 -6 11 -14 11 -7 0 -20 10 -29 22 -15
23 -15 23 -10 -7 4 -28 3 -29 -11 -11 -8 10 -19 15 -25 11 -7 -3 -8 0 -5 9 3
9 10 13 15 10 19 -11 8 8 -18 32 -15 14 -20 22 -10 18 13 -5 16 -2 11 10 -3 9
-10 13 -15 10 -5 -3 -9 2 -9 10 0 9 -4 16 -8 16 -5 0 -14 10 -21 22 -6 13 -10
16 -7 7 2 -9 -1 -22 -7 -28 -7 -7 -7 -11 -1 -11 6 0 11 -7 11 -15 0 -11 -4
-12 -14 -3 -7 6 -11 19 -8 29 3 9 0 21 -6 25 -8 4 -9 3 -5 -4 4 -7 5 -12 2
-12 -6 0 -60 114 -103 220 -107 261 -169 496 -212 805 -25 176 -23 618 3 775
120 727 480 1276 940 1434 43 15 106 31 140 36 l61 8 -55 0 c-30 0 -80 5 -110
11 -64 12 -220 19 -220 10 0 -4 44 -8 98 -11 118 -6 140 -15 86 -35 -22 -8
-47 -15 -57 -14 -10 0 -15 -5 -11 -11 5 -7 2 -9 -9 -5 -9 3 -17 2 -19 -2 -2
-4 -47 -33 -101 -65 -218 -128 -396 -332 -540 -621 -95 -191 -177 -439 -211
-640 -23 -134 -22 -131 -44 -111 -24 21 -56 20 -138 -5 -220 -68 -422 -248
-524 -469 l-25 -54 -6 45 c-9 61 7 282 25 343 33 113 198 314 331 403 124 83
227 125 355 144 82 12 86 14 71 38 -7 11 -23 12 -69 7 -255 -29 -492 -185
-649 -430 l-33 -50 0 32 c0 44 43 234 69 303 37 99 208 262 371 354 129 73
296 125 402 125 24 0 50 5 58 10 13 8 13 11 -1 25 -14 14 -26 15 -96 5 -243
-33 -461 -145 -632 -324 -35 -37 -65 -65 -67 -64 -5 6 57 172 92 246 40 82 80
131 157 190 196 151 425 234 649 235 95 1 115 4 106 14 -15 18 -183 17 -278
-2 -168 -33 -332 -106 -475 -212 -47 -35 -88 -63 -91 -63 -25 0 98 196 210
335 86 107 231 234 351 305 22 13 42 27 45 31 8 12 107 15 507 17 210 1 406
-3 465 -9z m-1461 -130 c27 -13 45 -32 55 -54 31 -75 13 -127 -91 -270 l-79
-107 -21 86 c-17 69 -28 93 -55 122 -40 41 -79 64 -110 64 -29 0 -20 10 63 73
73 55 161 106 185 107 7 0 31 -9 53 -21z m-271 -214 c37 -19 77 -65 95 -109
20 -48 21 -157 1 -211 -16 -45 -102 -234 -109 -241 -2 -3 -10 23 -16 57 -28
139 -109 250 -209 285 l-50 18 39 51 c22 27 68 78 101 113 55 58 63 63 92 56
17 -3 42 -12 56 -19z m-234 -274 c99 -45 172 -165 181 -299 5 -68 1 -94 -31
-211 -48 -175 -50 -178 -71 -106 -25 87 -77 184 -131 244 -47 52 -134 111
-166 111 -9 0 -19 4 -22 9 -6 9 59 134 116 224 34 54 56 59 124 28z m-179
-326 c122 -56 221 -215 248 -397 8 -50 -32 -336 -45 -321 -3 4 -19 39 -34 76
-70 167 -205 320 -331 372 l-34 15 29 82 c57 169 71 198 94 198 11 0 45 -11
73 -25z m-126 -335 c95 -48 208 -189 268 -335 51 -121 62 -190 54 -338 l-6
-129 -36 72 c-84 166 -235 326 -368 391 -44 21 -63 36 -63 49 0 27 48 263 60
294 11 30 23 29 91 -4z m1104 -302 c-9 -57 -25 -270 -25 -342 0 -55 -3 -67
-12 -58 -29 29 -172 -3 -273 -62 -134 -79 -249 -219 -300 -365 -15 -42 -30
-83 -33 -91 -9 -26 -32 91 -38 201 -5 73 -3 122 6 159 63 263 320 517 580 574
100 22 102 21 95 -16z m-1171 -100 c85 -45 229 -190 289 -293 74 -126 102
-211 122 -368 9 -76 15 -140 13 -143 -2 -2 -26 27 -53 64 -103 141 -268 283
-419 359 l-69 35 6 171 c3 95 9 180 12 190 10 24 29 21 99 -15z m1149 -440 c4
-68 9 -154 13 -192 l7 -68 -29 6 c-22 5 -48 -3 -101 -28 -199 -96 -325 -249
-376 -458 -9 -37 -14 -74 -11 -82 3 -9 1 -16 -5 -16 -20 0 -73 190 -78 282
-15 252 137 509 367 620 70 34 139 56 181 57 l26 1 6 -122z m-1133 -25 c152
-89 340 -285 415 -433 19 -37 57 -166 87 -295 3 -12 -36 22 -91 78 -154 159
-321 281 -453 332 -27 10 -48 22 -48 26 0 5 -6 48 -14 96 -8 49 -17 125 -20
170 l-5 82 42 -15 c23 -8 62 -27 87 -41z m1174 -360 c16 -89 65 -282 82 -326
6 -16 2 -17 -32 -12 -33 5 -49 0 -103 -32 -82 -49 -182 -147 -222 -219 -18
-31 -41 -59 -51 -62 -21 -5 -23 -13 -5 -31 6 -7 8 -12 2 -11 -25 5 -37 -1 -31
-16 6 -14 4 -15 -9 -4 -11 9 -12 15 -5 20 20 12 -13 29 -37 19 -13 -5 -23 -11
-23 -13 0 -3 18 -47 40 -97 22 -51 40 -97 40 -103 -1 -20 -70 108 -101 189
-29 72 -32 91 -33 190 0 96 3 121 28 193 36 107 111 219 189 284 60 49 205
128 237 128 11 0 20 -24 34 -97z m-1147 -34 c135 -64 348 -249 465 -404 60
-79 72 -102 129 -240 l29 -70 -30 33 c-16 17 -32 32 -35 32 -3 0 -30 20 -60
44 -58 48 -258 181 -315 211 -19 10 -71 33 -115 51 -72 30 -81 36 -93 71 -18
50 -82 284 -82 301 0 17 23 10 107 -29z m1231 -365 c1 -14 10 -38 21 -52 10
-15 31 -58 46 -97 15 -38 45 -107 66 -152 37 -81 37 -83 16 -84 -12 -1 -28 -1
-35 0 -8 2 -30 -9 -50 -22 -21 -14 -45 -29 -56 -34 -10 -6 -43 -34 -72 -64
-43 -41 -61 -53 -87 -53 -23 -1 -31 -5 -29 -16 3 -11 -2 -10 -17 4 -12 11 -21
15 -22 10 0 -5 -4 0 -9 11 -7 17 -9 17 -9 3 -1 -19 -21 -26 -21 -7 0 5 -5 7
-10 4 -6 -4 -9 -13 -8 -20 3 -13 0 -15 -21 -15 -4 0 -7 12 -5 28 2 15 1 19 -2
9 -3 -9 -9 -15 -13 -13 -4 3 -8 -10 -9 -28 -3 -42 27 -112 80 -191 53 -78 20
-51 -39 32 -57 81 -82 145 -89 236 -12 146 43 284 161 402 61 61 169 134 200
135 6 0 12 -12 13 -26z m-1068 -67 c115 -57 286 -175 397 -273 63 -57 152
-173 170 -222 4 -9 15 -28 25 -41 10 -13 18 -29 18 -35 -1 -6 -6 -1 -13 10
-22 40 -205 224 -221 224 -10 0 -15 4 -12 9 9 14 -32 44 -50 37 -14 -5 -15 -4
-5 8 9 11 8 15 -5 20 -20 8 -41 -8 -25 -18 6 -4 11 -15 11 -24 0 -12 -3 -13
-12 -4 -16 16 -29 15 -26 0 2 -7 -5 -12 -15 -11 -12 1 -17 -4 -13 -14 3 -8 2
-12 -3 -9 -5 3 -11 20 -15 37 -4 23 -10 30 -22 25 -13 -5 -15 -1 -12 19 4 20
1 25 -15 25 -16 0 -17 -2 -7 -15 7 -9 10 -18 6 -22 -3 -3 -6 -1 -6 6 0 7 -4
10 -9 7 -5 -3 -11 4 -15 17 -4 14 -9 18 -13 11 -10 -14 -73 -16 -73 -3 0 5 1
11 3 12 1 2 -5 12 -13 22 -14 17 -13 18 4 12 16 -7 17 -5 5 9 -8 10 -15 12
-17 5 -2 -6 -8 -9 -13 -6 -5 4 -6 -1 -3 -9 3 -9 11 -16 18 -16 6 0 5 -4 -3 -9
-13 -8 -13 -12 -1 -28 12 -15 12 -16 0 -5 -17 14 -34 16 -25 2 3 -5 2 -10 -3
-10 -6 0 -17 20 -25 45 -9 25 -12 45 -7 45 4 0 10 -6 12 -12 3 -7 7 -2 10 10
4 12 2 20 -2 17 -5 -3 -11 -1 -15 5 -3 5 2 10 12 11 11 0 13 3 5 6 -7 3 -19 0
-26 -6 -15 -12 -19 -9 -49 47 -10 17 -16 36 -13 41 4 5 0 12 -6 15 -7 3 -3 3
10 0 16 -4 22 -1 22 12 0 10 -3 15 -6 11 -6 -5 -74 57 -74 68 0 13 62 -10 160
-58z m587 -232 c0 -11 -4 -12 -14 -4 -7 6 -13 13 -13 15 0 2 6 4 13 4 8 0 14
-7 14 -15z m-467 -31 c0 -8 -5 -12 -10 -9 -6 4 -8 11 -5 16 9 14 15 11 15 -7z
m125 -134 c185 -90 406 -243 418 -290 3 -11 4 -20 2 -20 -2 0 -50 33 -108 73
-175 123 -336 213 -499 280 -20 9 -41 25 -47 36 -11 20 -9 20 61 -5 40 -14
118 -48 173 -74z m-55 96 c0 -2 -9 -6 -20 -9 -11 -3 -18 -1 -14 4 5 9 34 13
34 5z m1105 -133 c26 -49 74 -128 107 -176 33 -49 58 -90 56 -92 -2 -2 -15 -6
-29 -10 -22 -5 -31 0 -66 47 -22 29 -52 74 -67 100 -37 63 -51 74 -71 54 -9
-9 -13 -16 -8 -16 5 0 14 5 20 11 8 8 13 8 17 0 4 -6 2 -11 -4 -11 -6 0 -9 -4
-5 -9 3 -5 -4 -16 -15 -24 -11 -7 -17 -17 -13 -20 3 -4 -6 -7 -20 -7 -15 0
-27 -4 -27 -9 0 -5 10 -7 23 -5 22 4 22 4 -1 -8 -20 -10 -25 -9 -32 3 -5 7
-15 23 -23 33 -13 18 -14 18 -20 -3 -3 -13 -1 -19 6 -14 7 4 8 0 4 -11 -6 -14
-3 -17 10 -12 14 6 15 5 6 -5 -9 -9 -16 -9 -26 -1 -8 7 -17 9 -20 5 -4 -3 -7
-1 -7 6 0 7 -4 10 -10 6 -5 -3 -7 -12 -4 -19 3 -8 0 -17 -6 -21 -6 -3 -10 -3
-9 2 5 29 -3 32 -30 12 -69 -51 -78 -151 -22 -264 l30 -60 -30 34 c-39 47 -61
118 -61 201 0 125 67 228 211 322 40 26 77 48 81 48 5 0 29 -39 55 -87z m-971
51 c3 -8 2 -12 -4 -9 -6 3 -10 10 -10 16 0 14 7 11 14 -7z m-48 -255 c156 -48
479 -193 469 -210 -3 -4 7 -17 22 -29 36 -28 35 -27 -147 62 -85 41 -210 97
-277 123 -67 26 -127 53 -134 61 -15 18 -14 18 67 -7z m834 1 c0 -5 -5 -10
-11 -10 -5 0 -7 5 -4 10 3 6 8 10 11 10 2 0 4 -4 4 -10z m500 -232 c125 -129
136 -147 88 -148 -24 0 -130 91 -185 160 -27 32 -52 59 -58 59 -5 0 -35 -16
-65 -37 -72 -48 -100 -102 -101 -192 0 -45 -3 -59 -9 -45 -13 30 -11 105 4
146 19 55 62 105 128 149 33 22 62 40 64 40 3 0 63 -60 134 -132z m-825 -135
c50 -14 104 -32 120 -39 17 -7 49 -18 71 -24 23 -5 48 -18 55 -27 12 -15 12
-16 -4 -10 -10 4 -68 22 -130 41 -283 88 -305 96 -252 90 28 -3 91 -17 140
-31z m1055 -61 c33 -21 57 -41 54 -45 -4 -4 -1 -14 7 -23 12 -15 10 -15 -26 1
-22 9 -55 25 -74 36 -42 25 -59 21 -140 -31 -47 -31 -58 -35 -45 -17 17 22
142 116 156 117 4 0 34 -17 68 -38z"/>
<path d="M2345 4613 c-93 -12 -291 -60 -282 -69 2 -2 26 3 54 11 78 23 207 46
312 54 l96 8 -75 0 c-41 0 -88 -2 -105 -4z"/>
<path d="M2138 4593 c7 -3 16 -2 19 1 4 3 -2 6 -13 5 -11 0 -14 -3 -6 -6z"/>
<path d="M1977 4528 c-58 -37 -56 -46 4 -18 24 11 40 20 34 20 -5 0 -1 7 9 15
35 26 3 15 -47 -17z"/>
<path d="M2170 4489 c-116 -12 -273 -53 -345 -90 -33 -17 -85 -53 -115 -80
-52 -47 -53 -49 -14 -26 138 84 307 146 455 167 83 12 264 9 349 -6 25 -5 32
-3 25 5 -26 27 -226 44 -355 30z"/>
<path d="M3015 4379 c-105 -17 -241 -83 -347 -168 -356 -282 -578 -868 -578
-1525 0 -280 27 -482 101 -743 22 -79 56 -184 75 -235 54 -143 165 -362 242
-479 77 -116 230 -283 324 -354 125 -94 294 -155 428 -155 133 0 300 57 441
152 278 186 495 570 588 1046 47 236 47 238 8 276 -33 34 -118 71 -185 82
l-37 6 0 151 c0 131 -11 229 -31 282 -3 6 27 19 66 29 83 21 156 67 184 115
26 46 24 106 -9 253 -135 602 -475 1077 -878 1228 -122 46 -267 60 -392 39z
m345 -64 c408 -129 751 -587 901 -1199 34 -143 37 -208 9 -253 -38 -63 -153
-113 -261 -113 -55 0 -113 15 -454 115 -150 44 -282 73 -358 80 -39 3 -81 8
-92 10 -11 2 -26 1 -32 -3 -18 -12 23 -143 51 -161 47 -32 111 -110 140 -171
26 -55 31 -79 34 -160 3 -79 0 -105 -17 -155 -35 -97 -35 -98 -20 -93 7 2 25
31 38 64 21 50 25 75 26 169 0 103 -2 114 -31 176 -35 73 -83 132 -143 173
-33 23 -41 36 -54 87 l-15 59 48 0 c92 0 285 -45 590 -138 91 -28 193 -56 226
-63 l62 -13 16 -75 c21 -94 31 -240 22 -313 -6 -50 -9 -55 -29 -51 -42 8 -229
-27 -334 -62 -340 -114 -529 -304 -609 -611 -21 -81 -26 -127 -29 -254 l-3
-155 7 145 c10 177 40 302 108 440 104 210 327 369 620 442 129 32 305 31 388
-1 33 -14 75 -39 93 -57 28 -28 32 -38 32 -87 0 -127 -73 -409 -156 -605 -103
-241 -246 -436 -407 -558 -209 -157 -459 -205 -673 -127 -434 157 -820 820
-916 1573 -17 134 -17 493 0 630 58 467 210 841 439 1081 127 133 273 222 417
255 96 22 261 12 366 -21z"/>
<path d="M3028 4230 c-129 -23 -263 -93 -369 -192 -166 -154 -312 -436 -394
-758 -25 -101 -60 -328 -51 -337 3 -3 58 4 123 17 290 54 453 76 453 62 0 -5
-44 -35 -97 -67 -262 -155 -360 -273 -370 -448 -6 -94 6 -160 45 -247 18 -40
24 -70 23 -112 l-2 -57 73 -49 c151 -102 234 -132 362 -132 147 1 246 44 368
160 73 69 75 64 -47 109 -44 16 -138 52 -208 79 l-128 50 -10 -25 c-5 -13 -14
-34 -20 -46 -9 -19 -8 -20 3 -5 7 9 18 24 23 33 9 15 18 13 90 -16 44 -17 132
-51 195 -75 63 -23 115 -47 115 -53 0 -16 -121 -118 -168 -143 -94 -48 -222
-61 -323 -34 -60 16 -169 72 -236 121 -46 34 -46 34 -51 102 -2 46 -13 89 -33
133 -26 59 -28 76 -29 175 0 100 3 116 28 169 51 110 138 190 324 302 61 36
82 54 83 70 0 18 8 22 53 28 112 13 266 6 451 -20 l48 -7 -15 24 c-13 20 -32
91 -29 109 0 3 -4 10 -9 17 -9 11 -12 37 -7 86 1 9 3 17 4 17 13 0 72 -35 69
-40 -3 -4 4 -18 15 -30 11 -13 20 -20 20 -15 0 4 7 2 15 -5 8 -7 12 -16 9 -21
-5 -8 10 -13 30 -10 5 1 6 -7 3 -19 -3 -12 0 -20 8 -20 7 0 19 -8 26 -17 12
-15 12 -16 -5 -10 -15 6 -17 5 -7 -6 9 -11 8 -17 -4 -27 -8 -7 -15 -18 -15
-24 0 -6 5 -4 10 4 9 13 11 13 20 0 6 -8 8 -23 6 -32 -3 -14 6 -20 37 -29 23
-6 109 -31 192 -56 208 -63 267 -74 327 -63 78 15 136 45 143 73 9 36 -50 270
-107 427 -140 379 -376 678 -645 813 -113 58 -302 88 -415 67z m447 -110 c3
-6 -1 -7 -9 -4 -18 7 -21 14 -7 14 6 0 13 -4 16 -10z m196 -167 c214 -229 372
-552 448 -920 23 -113 25 -133 12 -133 -5 0 -12 24 -16 53 -19 143 -95 388
-172 558 -93 205 -186 343 -328 484 -51 51 -69 72 -40 48 28 -22 71 -63 96
-90z m100 -346 c57 -92 98 -176 123 -252 39 -119 96 -382 95 -434 -1 -41 -3
-37 -15 32 -28 171 -120 449 -200 610 -46 91 -48 117 -3 44z m-432 -335 c1
-10 -7 -9 -28 4 -17 10 -28 21 -25 26 8 12 24 10 22 -3 -2 -6 2 -13 9 -16 7
-3 10 4 7 19 -4 21 -4 21 5 3 5 -11 10 -26 10 -33z"/>
<path d="M2820 2928 c-227 -142 -193 -85 -267 -455 -34 -175 -63 -324 -63
-330 0 -9 17 -13 53 -13 l54 0 31 83 c17 45 61 163 97 262 37 99 69 184 72
188 5 8 72 -132 108 -227 10 -26 21 -49 25 -51 4 -2 52 -22 107 -43 l99 -39
-38 141 c-44 161 -80 318 -104 456 -9 52 -19 100 -23 107 -4 8 -55 -19 -151
-79z m153 -52 c2 2 20 -74 41 -169 20 -94 44 -193 52 -219 9 -26 13 -57 9 -68
-4 -12 -2 -20 5 -20 8 0 8 -6 0 -20 -8 -15 -8 -20 1 -20 7 0 10 -2 8 -5 -6 -5
-126 38 -138 50 -5 6 -39 79 -76 163 -37 84 -71 150 -75 145 -7 -7 -57 -137
-166 -433 -28 -75 -47 -114 -56 -112 -19 5 -37 32 -31 48 3 8 1 14 -5 14 -11
0 -9 11 24 177 13 67 24 132 24 143 0 12 4 19 9 16 5 -4 7 4 3 16 -4 16 -2 19
8 13 10 -6 12 -2 7 15 -5 20 2 84 18 157 5 20 148 124 230 166 29 15 31 15 67
-23 20 -21 39 -36 41 -34z"/>
<path d="M3458 2993 c7 -3 16 -2 19 1 4 3 -2 6 -13 5 -11 0 -14 -3 -6 -6z"/>
<path d="M3411 2701 c-25 -25 -25 -14 -6 -137 8 -54 15 -136 15 -180 0 -61 4
-85 15 -94 22 -18 421 93 449 124 15 18 18 33 14 99 -3 49 -10 83 -19 91 -21
20 -304 99 -399 112 -40 5 -51 3 -69 -15z"/>
<path d="M3805 2176 c-142 -33 -300 -102 -399 -175 -214 -158 -322 -439 -296
-767 12 -136 46 -293 66 -301 20 -7 109 15 179 45 152 66 297 192 404 351 103
155 165 302 235 561 14 52 24 79 21 60 -13 -106 -17 -200 -7 -200 6 0 13 -13
17 -30 4 -16 10 -30 14 -30 11 0 46 121 70 238 38 187 41 196 34 112 -16 -225
-119 -536 -240 -725 -170 -264 -379 -408 -631 -435 l-87 -9 95 3 c229 7 459
146 615 371 154 223 300 610 307 820 l3 69 -45 25 c-40 23 -58 26 -170 28 -79
2 -147 -2 -185 -11z"/>
<path d="M2260 2143 c0 -48 56 -249 110 -392 60 -163 231 -481 264 -494 18 -7
1 208 -23 303 -20 75 -54 181 -76 233 -4 10 -3 17 4 17 6 0 11 -4 11 -9 0 -5
10 -11 23 -15 16 -4 31 -22 47 -56 13 -27 25 -48 27 -47 5 6 -44 120 -80 184
-78 137 -129 187 -294 287 -9 5 -13 1 -13 -11z"/>
<path d="M2925 2112 c-23 -13 -55 -17 -137 -17 -69 0 -101 -3 -91 -9 9 -5 53
-9 97 -9 67 -1 90 4 136 25 30 15 48 27 40 27 -8 0 -28 -7 -45 -17z"/>
<path d="M2806 1816 c-60 -22 -62 -30 -46 -134 24 -144 32 -227 40 -411 9
-214 10 -218 76 -227 22 -3 34 -2 27 3 -8 6 -9 21 -3 53 5 25 9 49 10 54 0 5
3 6 8 2 7 -8 8 -12 11 -40 0 -8 7 -16 14 -19 9 -3 12 43 12 212 1 153 6 247
18 324 22 141 22 153 -7 172 -34 23 -114 28 -160 11z m133 -326 c1 -63 -2
-106 -9 -115 -6 -7 -12 -26 -13 -43 -1 -16 -5 -28 -9 -26 -7 4 -3 147 7 236 4
32 10 56 14 54 4 -3 8 -50 10 -106z m-16 -215 c4 -8 2 -17 -4 -20 -5 -4 -7
-11 -4 -16 4 -5 1 -9 -4 -9 -6 0 -11 14 -11 30 0 31 14 40 23 15z"/>
<path d="M2671 1595 c0 -5 6 -32 13 -60 8 -27 14 -41 14 -30 0 21 -25 107 -27
90z"/>
<path d="M2706 1377 c6 -97 -3 -180 -18 -171 -5 3 -4 -3 4 -15 12 -19 13 -19
20 -3 9 24 8 167 -2 227 -7 39 -8 31 -4 -38z"/>
<path d="M3051 1114 c0 -11 3 -14 6 -6 3 7 2 16 -1 19 -3 4 -6 -2 -5 -13z"/>
<path d="M3061 1054 c0 -11 3 -14 6 -6 3 7 2 16 -1 19 -3 4 -6 -2 -5 -13z"/>
<path d="M3072 1010 c0 -14 2 -19 5 -12 2 6 2 18 0 25 -3 6 -5 1 -5 -13z"/>
<path d="M1770 1194 c0 -1 6 -7 14 -13 10 -9 15 -8 19 2 3 8 -3 13 -14 13 -11
0 -19 -1 -19 -2z"/>
<path d="M782 1623 c-16 -29 -15 -38 2 -24 7 6 20 10 27 8 8 -2 11 -2 6 0 -4
3 -4 10 -1 15 4 6 2 8 -4 4 -5 -3 -12 0 -14 6 -3 8 -9 5 -16 -9z"/>
<path d="M790 1590 c0 -5 5 -10 10 -10 6 0 10 5 10 10 0 6 -4 10 -10 10 -5 0
-10 -4 -10 -10z"/>
<path d="M950 1546 c0 -2 8 -10 18 -17 15 -13 16 -12 3 4 -13 16 -21 21 -21
13z"/>
<path d="M1024 1468 c-4 -7 -3 -8 4 -4 18 11 37 -4 21 -16 -10 -7 -9 -8 5 -4
10 4 24 3 30 -1 7 -5 0 2 -14 14 -29 26 -36 28 -46 11z"/>
<path d="M955 1450 c4 -6 11 -8 16 -5 14 9 11 15 -7 15 -8 0 -12 -5 -9 -10z"/>
<path d="M1045 1410 c-3 -5 3 -19 13 -30 l19 -21 -4 26 c-6 29 -19 40 -28 25z"/>
<path d="M1925 1080 c3 -5 8 -10 11 -10 2 0 4 5 4 10 0 6 -5 10 -11 10 -5 0
-7 -4 -4 -10z"/>
</g>
</svg>
